<svg xmlns="http://www.w3.org/2000/svg" viewBox="0 0 595.28 841.89"><defs><style>.cls-1{fill:#0d0b0e;}.cls-2{fill:none;stroke:#1d4b74;stroke-miterlimit:10;stroke-width:2px;}.cls-3{fill:#fff;}.cls-4{fill:#1d4b74;}.cls-5{fill:#748a9b;}</style></defs><title>portadaguia</title><g id="Capa_2" data-name="Capa 2"><g id="Capa_1-2" data-name="Capa 1"><rect class="cls-1" width="595.28" height="841.89"/><rect class="cls-2" x="417.25" y="170.34" width="56.69" height="56.69"/><rect class="cls-2" x="318.04" y="170.34" width="56.69" height="56.69"/><rect class="cls-2" x="218.82" y="170.34" width="56.69" height="56.69"/><rect class="cls-2" x="119.61" y="170.34" width="56.69" height="56.69"/><line class="cls-2" x1="176.3" y1="198.69" x2="218.82" y2="198.69"/><line class="cls-2" x1="276.38" y1="198.69" x2="318.9" y2="198.69"/><line class="cls-2" x1="374.73" y1="198.69" x2="417.25" y2="198.69"/><path class="cls-3" d="M109.24,361.75v-36.4H127q6.85,0,10.32,2.6a8.17,8.17,0,0,1,3.46,6.86,8.71,8.71,0,0,1-1.41,5,9,9,0,0,1-3.87,3.25,13.2,13.2,0,0,1-5.59,1.14l1-2.18a15.09,15.09,0,0,1,6.06,1.14,9.62,9.62,0,0,1,4.13,3.33,9.2,9.2,0,0,1,1.51,5.36,8.47,8.47,0,0,1-3.69,7.31q-3.7,2.63-10.87,2.62Zm8.38-6.34h9.88a9.23,9.23,0,0,0,4.94-1.1,3.71,3.71,0,0,0,1.71-3.37,3.79,3.79,0,0,0-1.71-3.44,9.23,9.23,0,0,0-4.94-1.09H117v-6.14h9a8.63,8.63,0,0,0,4.7-1.06,3.59,3.59,0,0,0,1.64-3.25,3.55,3.55,0,0,0-1.64-3.23,8.83,8.83,0,0,0-4.7-1h-8.37Z"/><path class="cls-3" d="M150.1,361.75v-36.4h8.48v29.54h18.15v6.86Z"/><path class="cls-3" d="M200.49,362.38a21.66,21.66,0,0,1-7.9-1.41,19.18,19.18,0,0,1-6.35-4,17.9,17.9,0,0,1-4.18-6,19.74,19.74,0,0,1,0-15,18,18,0,0,1,4.18-6,19.42,19.42,0,0,1,6.32-3.95,21.63,21.63,0,0,1,7.93-1.4,22.27,22.27,0,0,1,7.93,1.37,18.94,18.94,0,0,1,6.32,3.93,17.93,17.93,0,0,1,4.19,6,19.87,19.87,0,0,1,0,15.05,17.85,17.85,0,0,1-4.19,6,18.94,18.94,0,0,1-6.32,3.93A22,22,0,0,1,200.49,362.38Zm0-7.13a11.6,11.6,0,0,0,4.5-.86A10.82,10.82,0,0,0,208.6,352a11.31,11.31,0,0,0,2.42-3.69,13.3,13.3,0,0,0,0-9.41,11.25,11.25,0,0,0-2.42-3.7,11,11,0,0,0-3.61-2.44,11.6,11.6,0,0,0-4.5-.86,11.74,11.74,0,0,0-4.52.86,10.71,10.71,0,0,0-3.62,2.44,11.49,11.49,0,0,0-2.39,3.7,13.3,13.3,0,0,0,0,9.41,11.56,11.56,0,0,0,2.39,3.69,10.57,10.57,0,0,0,3.62,2.44A11.74,11.74,0,0,0,200.49,355.25Z"/><path class="cls-3" d="M266.83,361.75v-36.4h8.37v36.4Zm7.49-8.32-.42-9.72,17.42-18.36h9.36L285,342.25l-4.78,5Zm17.42,8.32-12.95-15.81,5.51-6,17.32,21.84Z"/><path class="cls-3" d="M322.52,362.38A21.76,21.76,0,0,1,314.7,361a18.42,18.42,0,0,1-6.27-3.93,18.2,18.2,0,0,1-4.13-6,19.95,19.95,0,0,1,0-15.08,18,18,0,0,1,4.16-6,18.61,18.61,0,0,1,6.29-3.93,22,22,0,0,1,7.83-1.37,21.76,21.76,0,0,1,8.58,1.63,16.74,16.74,0,0,1,6.44,4.81l-5.46,5a12.4,12.4,0,0,0-4.13-3.23,11.59,11.59,0,0,0-5-1.09,12.45,12.45,0,0,0-4.68.86,10.84,10.84,0,0,0-6.11,6.11,13.44,13.44,0,0,0,0,9.46,10.76,10.76,0,0,0,6.11,6.11,12.45,12.45,0,0,0,4.68.86,11.33,11.33,0,0,0,5-1.12,12.6,12.6,0,0,0,4.13-3.25l5.46,5a16.88,16.88,0,0,1-6.44,4.83A21.58,21.58,0,0,1,322.52,362.38Z"/><path class="cls-3" d="M344.78,361.75v-36.4h8.47v36.4Zm7.8-14.92V339.7h17.78v7.13Zm17.16,14.92v-36.4h8.42v36.4Z"/><path class="cls-3" d="M384.09,361.75l16.17-36.4h8.32l16.33,36.4h-8.84l-13.36-32.14h3.38l-13.37,32.14Zm8.17-7.8,2.13-6.39h18.82L415.4,354Z"/><path class="cls-3" d="M430.79,361.75v-36.4h8.47v36.4Z"/><path class="cls-3" d="M449.92,361.75v-36.4h7l21.48,26.21H475V325.35h8.32v36.4h-7l-21.48-26.21h3.38v26.21Z"/><path class="cls-3" d="M112.65,409.75v-36.4h16.53a23,23,0,0,1,10.45,2.26,17.25,17.25,0,0,1,7.08,6.35,19.39,19.39,0,0,1,0,19.19,17.23,17.23,0,0,1-7.08,6.34,23,23,0,0,1-10.45,2.26Zm8.47-6.86h7.65a13.59,13.59,0,0,0,6.31-1.38,9.91,9.91,0,0,0,4.16-3.95,12.91,12.91,0,0,0,0-12,9.93,9.93,0,0,0-4.16-3.93,13.59,13.59,0,0,0-6.31-1.38h-7.65Z"/><path class="cls-3" d="M157.68,409.75v-36.4h27.51v6.76H166.05V403h19.81v6.76Zm7.75-15.18V388H183v6.61Z"/><path class="cls-3" d="M206.66,410.38a30.38,30.38,0,0,1-8.4-1.17,19.78,19.78,0,0,1-6.47-3l2.86-6.34a19.83,19.83,0,0,0,5.51,2.73,20.62,20.62,0,0,0,6.5,1.06,13,13,0,0,0,4-.51,5,5,0,0,0,2.26-1.38,3,3,0,0,0,.73-2,2.74,2.74,0,0,0-1.14-2.31,9.45,9.45,0,0,0-3-1.4c-1.27-.37-2.65-.71-4.14-1s-3-.73-4.5-1.2a18.46,18.46,0,0,1-4.16-1.87,8.76,8.76,0,0,1-3-3.07,9.19,9.19,0,0,1-1.12-4.76,10.23,10.23,0,0,1,1.66-5.69,11.35,11.35,0,0,1,5.07-4.11,20.91,20.91,0,0,1,8.56-1.53,27.72,27.72,0,0,1,6.78.83,19.87,19.87,0,0,1,5.85,2.39l-2.65,6.34a21.54,21.54,0,0,0-5-2.1,19.1,19.1,0,0,0-5-.7,12.2,12.2,0,0,0-4,.54,4.69,4.69,0,0,0-2.21,1.49,3.35,3.35,0,0,0-.7,2.08,2.82,2.82,0,0,0,1.14,2.34,8.64,8.64,0,0,0,3,1.37c1.25.33,2.63.66,4.16,1s3,.74,4.52,1.22a20.23,20.23,0,0,1,4.11,1.85,8.45,8.45,0,0,1,4.21,7.72,9.93,9.93,0,0,1-1.69,5.62,11.7,11.7,0,0,1-5.12,4.1A20.75,20.75,0,0,1,206.66,410.38Z"/><path class="cls-3" d="M229.85,409.75v-36.4h16.54a23.06,23.06,0,0,1,10.45,2.26,17.22,17.22,0,0,1,7.07,6.35,19.33,19.33,0,0,1,0,19.19,17.2,17.2,0,0,1-7.07,6.34,23.06,23.06,0,0,1-10.45,2.26Zm8.48-6.86H246a13.63,13.63,0,0,0,6.32-1.38,10,10,0,0,0,4.16-3.95,13,13,0,0,0,0-12,10,10,0,0,0-4.16-3.93,13.63,13.63,0,0,0-6.32-1.38h-7.64Z"/><path class="cls-3" d="M274.88,409.75v-36.4h27.51v6.76H283.26V403h19.81v6.76Zm7.75-15.18V388h17.53v6.61Z"/><path class="cls-3" d="M346.07,410.38a21.68,21.68,0,0,1-7.82-1.38,18.42,18.42,0,0,1-6.27-3.93,18.23,18.23,0,0,1-4.14-6,19.95,19.95,0,0,1,0-15.08,18.13,18.13,0,0,1,4.16-6,18.75,18.75,0,0,1,6.3-3.93,22,22,0,0,1,7.82-1.37,21.69,21.69,0,0,1,8.58,1.63,16.7,16.7,0,0,1,6.45,4.81l-5.46,5a12.4,12.4,0,0,0-4.13-3.23,11.62,11.62,0,0,0-5-1.09,12.45,12.45,0,0,0-4.68.86,10.84,10.84,0,0,0-6.11,6.11,13.44,13.44,0,0,0,0,9.46,10.76,10.76,0,0,0,6.11,6.11,12.45,12.45,0,0,0,4.68.86,11.36,11.36,0,0,0,5-1.12,12.6,12.6,0,0,0,4.13-3.25l5.46,5a16.84,16.84,0,0,1-6.45,4.83A21.5,21.5,0,0,1,346.07,410.38Z"/><path class="cls-3" d="M368.33,409.75v-36.4h27.5v6.76H376.7V403h19.81v6.76Zm7.74-15.18V388H393.6v6.61Z"/><path class="cls-3" d="M405.3,409.75v-36.4h15.55q7.59,0,11.8,3.51a11.88,11.88,0,0,1,4.21,9.65,12.57,12.57,0,0,1-1.92,7,12.07,12.07,0,0,1-5.46,4.47,21,21,0,0,1-8.43,1.54H409.93l3.84-3.64v13.83Zm8.47-12.9-3.84-4h10.66a8.84,8.84,0,0,0,5.82-1.66,5.78,5.78,0,0,0,2-4.68,5.71,5.71,0,0,0-2-4.66,9,9,0,0,0-5.82-1.64H409.93l3.84-4Zm14.72,12.9-9.15-13.21h9.05l9.15,13.21Z"/><path class="cls-3" d="M245.67,361.6a21.76,21.76,0,0,1-7.82-1.38,18.11,18.11,0,0,1-10.4-9.9,19.95,19.95,0,0,1,0-15.08,18,18,0,0,1,4.16-6,18.61,18.61,0,0,1,6.29-3.93,23.09,23.09,0,0,1,16.41.26,16.64,16.64,0,0,1,6.44,4.81l-5.46,5a12.37,12.37,0,0,0-4.13-3.22,11.59,11.59,0,0,0-5-1.09,12.26,12.26,0,0,0-4.68.86,10.76,10.76,0,0,0-6.11,6.11,13.44,13.44,0,0,0,0,9.46,10.84,10.84,0,0,0,6.11,6.11,12.45,12.45,0,0,0,4.68.86,11.33,11.33,0,0,0,5-1.12,12.73,12.73,0,0,0,4.13-3.25l5.46,5a16.81,16.81,0,0,1-6.44,4.84A21.58,21.58,0,0,1,245.67,361.6Z"/><path class="cls-4" d="M105.2,463.92a5.27,5.27,0,0,1-3.9-1.42,5.62,5.62,0,0,1-1.42-4.16v-7.16h1.8v7.09a4.35,4.35,0,0,0,.92,3.08,4.05,4.05,0,0,0,5.26,0,4.35,4.35,0,0,0,.93-3.08v-7.09h1.74v7.16a5.66,5.66,0,0,1-1.41,4.16A5.27,5.27,0,0,1,105.2,463.92Z"/><path class="cls-4" d="M114.33,463.78v-9.54H116v2.57l-.27-.68a3.38,3.38,0,0,1,1.44-1.46,4.72,4.72,0,0,1,2.27-.52,4.5,4.5,0,0,1,2.06.45,3.19,3.19,0,0,1,1.4,1.37,4.83,4.83,0,0,1,.5,2.32v5.49h-1.73v-5.29a2.9,2.9,0,0,0-.67-2.09,2.5,2.5,0,0,0-1.9-.7,3.4,3.4,0,0,0-1.6.36,2.39,2.39,0,0,0-1,1.06,3.64,3.64,0,0,0-.37,1.74v4.92Z"/><path class="cls-4" d="M129.74,463.89a4.55,4.55,0,0,1-1.87-.36,2.93,2.93,0,0,1-1.23-1,2.52,2.52,0,0,1-.43-1.45,2.7,2.7,0,0,1,.37-1.41,2.52,2.52,0,0,1,1.2-1,5.48,5.48,0,0,1,2.26-.38h3v1.24h-2.95a2.57,2.57,0,0,0-1.75.43,1.4,1.4,0,0,0-.45,1,1.35,1.35,0,0,0,.56,1.13,2.51,2.51,0,0,0,1.55.42,3.28,3.28,0,0,0,1.7-.43,2.52,2.52,0,0,0,1.05-1.26l.34,1.19a2.73,2.73,0,0,1-1.2,1.34A4.37,4.37,0,0,1,129.74,463.89Zm3.13-.11v-2l-.09-.38V458a2.23,2.23,0,0,0-.64-1.71,2.71,2.71,0,0,0-1.92-.6,4.93,4.93,0,0,0-1.65.28,4.38,4.38,0,0,0-1.37.75l-.72-1.3a5.29,5.29,0,0,1,1.77-.91,7.44,7.44,0,0,1,2.17-.31,4.42,4.42,0,0,1,3,1,3.76,3.76,0,0,1,1.06,2.92v5.76Z"/><path class="cls-4" d="M147.23,463.38a5.12,5.12,0,0,1-2.47-.58,4.72,4.72,0,0,1-1.73-6.47,4.47,4.47,0,0,1,1.73-1.61,5.23,5.23,0,0,1,2.47-.57,5,5,0,0,1,2.23.49,3.82,3.82,0,0,1,1.62,1.52,5.09,5.09,0,0,1,.6,2.59,5,5,0,0,1-.6,2.58,3.93,3.93,0,0,1-1.62,1.54A4.85,4.85,0,0,1,147.23,463.38Zm.22,4a9,9,0,0,1-2.55-.37,5.46,5.46,0,0,1-2-1.05l.83-1.34a4.81,4.81,0,0,0,1.64.91,6.31,6.31,0,0,0,2,.34,3.4,3.4,0,0,0,2.49-.8,3.27,3.27,0,0,0,.79-2.41v-2l.18-1.9-.09-1.9v-2.61h1.64v8.24a4.88,4.88,0,0,1-1.26,3.71A5.2,5.2,0,0,1,147.45,467.38Zm0-5.51a3.43,3.43,0,0,0,1.69-.4,3,3,0,0,0,1.16-1.09,3,3,0,0,0,.43-1.63,3,3,0,0,0-.43-1.61,2.83,2.83,0,0,0-1.16-1.09,3.54,3.54,0,0,0-1.69-.39,3.61,3.61,0,0,0-1.7.39,2.8,2.8,0,0,0-1.17,1.09,3,3,0,0,0-.42,1.61,3.12,3.12,0,0,0,.42,1.63,2.93,2.93,0,0,0,1.17,1.09A3.5,3.5,0,0,0,147.43,461.87Z"/><path class="cls-4" d="M160.07,463.89a4.83,4.83,0,0,1-2.15-.45,3.2,3.2,0,0,1-1.44-1.38,4.7,4.7,0,0,1-.52-2.33v-5.49h1.73v5.29a2.94,2.94,0,0,0,.68,2.11,2.53,2.53,0,0,0,1.89.7,3.25,3.25,0,0,0,1.57-.37,2.56,2.56,0,0,0,1-1.08,3.8,3.8,0,0,0,.36-1.72v-4.93h1.72v9.54h-1.63V461.2l.27.69a3.34,3.34,0,0,1-1.41,1.47A4.2,4.2,0,0,1,160.07,463.89Z"/><path class="cls-4" d="M168.11,452.85l2.45-2.34h2.2l-3,2.34Zm.49,10.93v-9.54h1.73v9.54Z"/><path class="cls-4" d="M176.77,463.89a4.47,4.47,0,0,1-1.86-.36,2.9,2.9,0,0,1-1.24-1,2.6,2.6,0,0,1-.43-1.45,2.7,2.7,0,0,1,.37-1.41,2.55,2.55,0,0,1,1.21-1,5.45,5.45,0,0,1,2.26-.38h3v1.24h-2.95a2.57,2.57,0,0,0-1.75.43,1.4,1.4,0,0,0-.45,1,1.35,1.35,0,0,0,.56,1.13,2.53,2.53,0,0,0,1.55.42,3.26,3.26,0,0,0,1.7-.43,2.47,2.47,0,0,0,1.05-1.26l.34,1.19a2.68,2.68,0,0,1-1.2,1.34A4.34,4.34,0,0,1,176.77,463.89Zm3.13-.11v-2l-.09-.38V458a2.23,2.23,0,0,0-.64-1.71,2.68,2.68,0,0,0-1.91-.6,5,5,0,0,0-1.66.28,4.38,4.38,0,0,0-1.37.75l-.72-1.3a5.29,5.29,0,0,1,1.77-.91,7.44,7.44,0,0,1,2.17-.31,4.42,4.42,0,0,1,3,1,3.73,3.73,0,0,1,1.06,2.92v5.76Z"/><path class="cls-4" d="M190.31,463.78v-9.54H192v2.59l-.16-.65a2.93,2.93,0,0,1,1.33-1.51,4.67,4.67,0,0,1,2.31-.52v1.67l-.21,0H195a3,3,0,0,0-2.2.83A3.29,3.29,0,0,0,192,459v4.75Z"/><path class="cls-4" d="M200.21,463.89a4.55,4.55,0,0,1-1.87-.36,2.93,2.93,0,0,1-1.23-1,2.52,2.52,0,0,1-.43-1.45,2.7,2.7,0,0,1,.37-1.41,2.48,2.48,0,0,1,1.2-1,5.45,5.45,0,0,1,2.26-.38h3v1.24h-3a2.56,2.56,0,0,0-1.74.43,1.4,1.4,0,0,0-.45,1,1.33,1.33,0,0,0,.56,1.13,2.49,2.49,0,0,0,1.54.42,3.23,3.23,0,0,0,1.7-.43,2.49,2.49,0,0,0,1.06-1.26l.34,1.19a2.7,2.7,0,0,1-1.21,1.34A4.3,4.3,0,0,1,200.21,463.89Zm3.13-.11v-2l-.09-.38V458a2.27,2.27,0,0,0-.64-1.71,2.73,2.73,0,0,0-1.92-.6,4.93,4.93,0,0,0-1.65.28,4.38,4.38,0,0,0-1.37.75l-.72-1.3a5.29,5.29,0,0,1,1.77-.91,7.39,7.39,0,0,1,2.17-.31,4.37,4.37,0,0,1,3,1A3.73,3.73,0,0,1,205,458v5.76Zm-3.67-10.93,2.44-2.34h2.2l-3,2.34Z"/><path class="cls-4" d="M208.54,467.27v-13h1.65v2.57l-.1,2.22.18,2.21v6Zm5.06-3.38a4.4,4.4,0,0,1-2.17-.55,4,4,0,0,1-1.57-1.63,5.62,5.62,0,0,1-.58-2.7,5.87,5.87,0,0,1,.56-2.7,3.86,3.86,0,0,1,1.55-1.62,4.52,4.52,0,0,1,2.21-.54,4.93,4.93,0,0,1,2.48.61,4.5,4.5,0,0,1,1.71,1.7,5.48,5.48,0,0,1,0,5.1,4.39,4.39,0,0,1-1.71,1.71A4.93,4.93,0,0,1,213.6,463.89Zm-.15-1.52a3.23,3.23,0,0,0,1.65-.41,3,3,0,0,0,1.15-1.18,3.62,3.62,0,0,0,.42-1.77,3.58,3.58,0,0,0-.42-1.78,3.05,3.05,0,0,0-1.15-1.16,3.48,3.48,0,0,0-3.28,0,3.12,3.12,0,0,0-1.15,1.16,3.58,3.58,0,0,0-.42,1.78,3.62,3.62,0,0,0,.42,1.77,3,3,0,0,0,1.15,1.18A3.21,3.21,0,0,0,213.45,462.37Z"/><path class="cls-4" d="M222,452.4a1.17,1.17,0,0,1-.84-.32,1.13,1.13,0,0,1,0-1.6,1.14,1.14,0,0,1,.84-.33,1.2,1.2,0,0,1,.84.32,1,1,0,0,1,.33.78,1.12,1.12,0,0,1-.33.82A1.11,1.11,0,0,1,222,452.4Zm-.87,11.38v-9.54h1.73v9.54Z"/><path class="cls-4" d="M230.5,463.89a5,5,0,0,1-2.48-.62,4.33,4.33,0,0,1-1.71-1.71,5.4,5.4,0,0,1,0-5.1,4.43,4.43,0,0,1,1.71-1.7,5,5,0,0,1,2.48-.61,4.43,4.43,0,0,1,2.18.54,4,4,0,0,1,1.55,1.62,5.62,5.62,0,0,1,.59,2.7,5.74,5.74,0,0,1-.57,2.7,3.92,3.92,0,0,1-1.54,1.63A4.44,4.44,0,0,1,230.5,463.89Zm.14-1.52a3.19,3.19,0,0,0,1.63-.41,3,3,0,0,0,1.15-1.18,3.52,3.52,0,0,0,.43-1.77,3.48,3.48,0,0,0-.43-1.78,3.05,3.05,0,0,0-1.15-1.16,3.22,3.22,0,0,0-4.42,1.16,3.58,3.58,0,0,0-.43,1.78,3.62,3.62,0,0,0,.43,1.77,3.06,3.06,0,0,0,2.79,1.59Zm3.26,1.41V461.2L234,459l-.18-2.21v-6.36h1.73v13.36Z"/><path class="cls-4" d="M242,463.89a4.47,4.47,0,0,1-1.86-.36,2.87,2.87,0,0,1-1.23-1,2.53,2.53,0,0,1-.44-1.45,2.8,2.8,0,0,1,.37-1.41,2.55,2.55,0,0,1,1.21-1,5.45,5.45,0,0,1,2.26-.38h3v1.24h-2.95a2.59,2.59,0,0,0-1.75.43,1.4,1.4,0,0,0-.45,1,1.35,1.35,0,0,0,.56,1.13,2.53,2.53,0,0,0,1.55.42,3.23,3.23,0,0,0,1.7-.43,2.49,2.49,0,0,0,1.06-1.26l.34,1.19a2.7,2.7,0,0,1-1.21,1.34A4.34,4.34,0,0,1,242,463.89Zm3.13-.11v-2l-.08-.38V458a2.27,2.27,0,0,0-.64-1.71,2.73,2.73,0,0,0-1.92-.6,5,5,0,0,0-1.66.28,4.49,4.49,0,0,0-1.37.75l-.72-1.3a5.44,5.44,0,0,1,1.78-.91,7.39,7.39,0,0,1,2.17-.31,4.41,4.41,0,0,1,3,1,3.73,3.73,0,0,1,1.06,2.92v5.76Z"/><path class="cls-4" d="M258.25,463.89a7.56,7.56,0,0,1-2.25-.33,5.22,5.22,0,0,1-1.69-.79l.72-1.37a5.72,5.72,0,0,0,1.51.7,5.8,5.8,0,0,0,1.84.29,3.35,3.35,0,0,0,1.74-.34,1.09,1.09,0,0,0,.53-.95.85.85,0,0,0-.33-.71,2.23,2.23,0,0,0-.85-.37c-.36-.09-.75-.16-1.18-.23s-.86-.15-1.3-.25a5.32,5.32,0,0,1-1.18-.43,2.34,2.34,0,0,1-.87-.78,2.73,2.73,0,0,1,.16-2.83,3.13,3.13,0,0,1,1.38-1,5.64,5.64,0,0,1,2.12-.35,8.4,8.4,0,0,1,1.9.22,4.85,4.85,0,0,1,1.57.64l-.74,1.37a3.84,3.84,0,0,0-1.35-.59,6.09,6.09,0,0,0-1.4-.17,3.14,3.14,0,0,0-1.69.37,1.09,1.09,0,0,0-.56.95.88.88,0,0,0,.33.74,2.35,2.35,0,0,0,.87.41,8.6,8.6,0,0,0,1.17.24c.44.07.87.15,1.3.25a5.87,5.87,0,0,1,1.18.43,2.11,2.11,0,0,1,1.2,2.05,2.28,2.28,0,0,1-.51,1.49,3.2,3.2,0,0,1-1.42,1A6,6,0,0,1,258.25,463.89Z"/><path class="cls-4" d="M269,463.89a5,5,0,0,1-2.54-.64,4.62,4.62,0,0,1-1.78-1.73A4.92,4.92,0,0,1,264,459a4.81,4.81,0,0,1,.65-2.51,4.64,4.64,0,0,1,1.77-1.72,5.51,5.51,0,0,1,5.1,0,4.48,4.48,0,0,1,1.76,1.72,5.28,5.28,0,0,1,0,5,4.55,4.55,0,0,1-1.76,1.72A5,5,0,0,1,269,463.89Zm0-1.52a3.26,3.26,0,0,0,1.65-.41,2.88,2.88,0,0,0,1.14-1.18,3.62,3.62,0,0,0,.42-1.77,3.58,3.58,0,0,0-.42-1.78,3,3,0,0,0-1.14-1.16,3.36,3.36,0,0,0-1.65-.41,3.3,3.3,0,0,0-1.64.41,3.2,3.2,0,0,0-1.15,1.16,3.48,3.48,0,0,0-.43,1.78,3.52,3.52,0,0,0,.43,1.77,3.11,3.11,0,0,0,1.15,1.18A3.2,3.2,0,0,0,269,462.37Z"/><path class="cls-4" d="M276.69,463.78V450.42h1.72v6.36l-.18,2.21.11,2.21v2.58Zm5.05.11a4.49,4.49,0,0,1-2.2-.55,3.88,3.88,0,0,1-1.55-1.63,5.74,5.74,0,0,1-.57-2.7,5.62,5.62,0,0,1,.59-2.7,3.94,3.94,0,0,1,1.56-1.62,4.45,4.45,0,0,1,2.17-.54,4.94,4.94,0,0,1,2.49.61,4.5,4.5,0,0,1,1.71,1.7,5.48,5.48,0,0,1,0,5.1,4.39,4.39,0,0,1-1.71,1.71A5,5,0,0,1,281.74,463.89Zm-.14-1.52a3.26,3.26,0,0,0,1.65-.41,3,3,0,0,0,1.15-1.18,3.62,3.62,0,0,0,.42-1.77,3.58,3.58,0,0,0-.42-1.78,3.12,3.12,0,0,0-1.15-1.16,3.36,3.36,0,0,0-1.65-.41,3.32,3.32,0,0,0-1.63.41,3.05,3.05,0,0,0-1.15,1.16,3.58,3.58,0,0,0-.42,1.78,3.62,3.62,0,0,0,.42,1.77A3,3,0,0,0,280,462,3.21,3.21,0,0,0,281.6,462.37Z"/><path class="cls-4" d="M289.32,463.78v-9.54H291v2.59l-.16-.65a2.89,2.89,0,0,1,1.33-1.51,4.63,4.63,0,0,1,2.3-.52v1.67l-.21,0h-.18a2.94,2.94,0,0,0-2.2.83,3.29,3.29,0,0,0-.81,2.4v4.75Z"/><path class="cls-4" d="M301,463.89a5.43,5.43,0,0,1-2.69-.64,4.46,4.46,0,0,1-1.8-1.72,4.87,4.87,0,0,1-.64-2.52,5.06,5.06,0,0,1,.62-2.52,4.42,4.42,0,0,1,1.71-1.72,5.21,5.21,0,0,1,4.91,0,4.36,4.36,0,0,1,1.66,1.72,5.34,5.34,0,0,1,.6,2.58v.25l0,.27h-8.12v-1.24h7.22l-.7.43a3.24,3.24,0,0,0-.38-1.63,3,3,0,0,0-1.09-1.13,3.42,3.42,0,0,0-3.21,0,2.85,2.85,0,0,0-1.1,1.13,3.41,3.41,0,0,0-.4,1.67v.29a3.34,3.34,0,0,0,.44,1.7,3.08,3.08,0,0,0,1.24,1.16,4.22,4.22,0,0,0,3.35.12,3.32,3.32,0,0,0,1.22-.86l.95,1.12a4.17,4.17,0,0,1-1.61,1.15A5.68,5.68,0,0,1,301,463.89Z"/><path class="cls-4" d="M313.62,463.78v-12.6h5.65a5.53,5.53,0,0,1,3.35.87,2.82,2.82,0,0,1,1.17,2.39,3,3,0,0,1-.46,1.72,2.93,2.93,0,0,1-1.23,1.08,3.65,3.65,0,0,1-1.67.38l.32-.54a4.58,4.58,0,0,1,1.91.38,3,3,0,0,1,1.31,1.11,3.14,3.14,0,0,1,.49,1.81,2.94,2.94,0,0,1-1.22,2.51,6.1,6.1,0,0,1-3.61.89Zm1.8-1.46h4.14a4.35,4.35,0,0,0,2.29-.5,2,2,0,0,0,0-3.19,4.25,4.25,0,0,0-2.29-.5h-4.3v-1.46h3.85a3.81,3.81,0,0,0,2.13-.51,1.9,1.9,0,0,0,0-3,3.82,3.82,0,0,0-2.13-.5h-3.69Z"/><path class="cls-4" d="M327.36,463.78V450.42h1.72v13.36Z"/><path class="cls-4" d="M336.82,463.89a5,5,0,0,1-2.54-.64,4.69,4.69,0,0,1-1.78-1.73,4.91,4.91,0,0,1-.64-2.51,4.81,4.81,0,0,1,.64-2.51,4.71,4.71,0,0,1,1.77-1.72,5.51,5.51,0,0,1,5.1,0,4.48,4.48,0,0,1,1.76,1.72,5.28,5.28,0,0,1,0,5,4.55,4.55,0,0,1-1.76,1.72A5,5,0,0,1,336.82,463.89Zm0-1.52a3.23,3.23,0,0,0,1.65-.41,2.88,2.88,0,0,0,1.14-1.18A3.62,3.62,0,0,0,340,459a3.58,3.58,0,0,0-.42-1.78,3,3,0,0,0-1.14-1.16,3.34,3.34,0,0,0-1.65-.41,3.26,3.26,0,0,0-1.63.41,3.22,3.22,0,0,0-1.16,1.16,3.58,3.58,0,0,0-.43,1.78,3.62,3.62,0,0,0,.43,1.77,3.08,3.08,0,0,0,2.79,1.59Z"/><path class="cls-4" d="M348.69,463.89a5.23,5.23,0,0,1-2.61-.64,4.7,4.7,0,0,1-1.79-1.72,5.28,5.28,0,0,1,0-5,4.62,4.62,0,0,1,1.79-1.72,5.33,5.33,0,0,1,2.61-.62,5.09,5.09,0,0,1,2.31.51,3.6,3.6,0,0,1,1.57,1.52l-1.31.85a2.89,2.89,0,0,0-1.14-1,3.28,3.28,0,0,0-1.45-.33,3.45,3.45,0,0,0-1.68.41,3.18,3.18,0,0,0-1.17,1.16,3.9,3.9,0,0,0,0,3.56A3.13,3.13,0,0,0,347,462a3.35,3.35,0,0,0,1.68.41,3.28,3.28,0,0,0,1.45-.33,2.89,2.89,0,0,0,1.14-1l1.31.83a3.71,3.71,0,0,1-1.57,1.52A4.86,4.86,0,0,1,348.69,463.89Z"/><path class="cls-4" d="M355,463.78V450.42h1.72v13.36Zm1.4-2.31,0-2.21,5.49-5H364l-4.21,4.14-.93.79Zm5.89,2.31-3.75-4.65,1.12-1.38,4.75,6Z"/><path class="cls-4" d="M370.21,463.89a5.22,5.22,0,0,1-2.6-.64,4.63,4.63,0,0,1-1.79-1.72,5.21,5.21,0,0,1,0-5,4.56,4.56,0,0,1,1.79-1.72,5.32,5.32,0,0,1,2.6-.62,5.11,5.11,0,0,1,2.32.51,3.6,3.6,0,0,1,1.57,1.52l-1.31.85a2.92,2.92,0,0,0-1.15-1,3.24,3.24,0,0,0-1.44-.33,3.43,3.43,0,0,0-1.68.41,3.18,3.18,0,0,0-1.17,1.16,3.9,3.9,0,0,0,0,3.56,3.13,3.13,0,0,0,1.17,1.17,3.32,3.32,0,0,0,1.68.41,3.24,3.24,0,0,0,1.44-.33,2.92,2.92,0,0,0,1.15-1l1.31.83a3.71,3.71,0,0,1-1.57,1.52A4.87,4.87,0,0,1,370.21,463.89Z"/><path class="cls-4" d="M376.51,463.78V450.42h1.73v6.39l-.34-.68a3.28,3.28,0,0,1,1.44-1.46,4.7,4.7,0,0,1,2.27-.52,4.5,4.5,0,0,1,2.06.45,3.17,3.17,0,0,1,1.39,1.37,4.72,4.72,0,0,1,.51,2.32v5.49h-1.73v-5.29a2.9,2.9,0,0,0-.67-2.09,2.53,2.53,0,0,0-1.9-.7,3.41,3.41,0,0,0-1.61.36,2.5,2.5,0,0,0-1.05,1.06,3.77,3.77,0,0,0-.37,1.74v4.92Z"/><path class="cls-4" d="M391.92,463.89a4.47,4.47,0,0,1-1.86-.36,2.87,2.87,0,0,1-1.23-1,2.53,2.53,0,0,1-.44-1.45,2.8,2.8,0,0,1,.37-1.41,2.55,2.55,0,0,1,1.21-1,5.45,5.45,0,0,1,2.26-.38h3v1.24H392.3a2.59,2.59,0,0,0-1.75.43,1.4,1.4,0,0,0-.45,1,1.35,1.35,0,0,0,.56,1.13,2.53,2.53,0,0,0,1.55.42,3.26,3.26,0,0,0,1.7-.43,2.42,2.42,0,0,0,1-1.26l.35,1.19a2.7,2.7,0,0,1-1.21,1.34A4.34,4.34,0,0,1,391.92,463.89Zm3.13-.11v-2l-.09-.38V458a2.26,2.26,0,0,0-.63-1.71,2.73,2.73,0,0,0-1.92-.6,5,5,0,0,0-1.66.28,4.49,4.49,0,0,0-1.37.75l-.72-1.3a5.44,5.44,0,0,1,1.78-.91,7.39,7.39,0,0,1,2.17-.31,4.41,4.41,0,0,1,3,1,3.73,3.73,0,0,1,1.06,2.92v5.76Z"/><path class="cls-4" d="M401.12,452.4a1.17,1.17,0,0,1-.84-.32,1.13,1.13,0,0,1,0-1.6,1.14,1.14,0,0,1,.84-.33,1.19,1.19,0,0,1,.84.32,1,1,0,0,1,.33.78,1.12,1.12,0,0,1-.33.82A1.11,1.11,0,0,1,401.12,452.4Zm-.87,11.38v-9.54H402v9.54Z"/><path class="cls-4" d="M405.64,463.78v-9.54h1.65v2.57l-.27-.68a3.38,3.38,0,0,1,1.44-1.46,4.72,4.72,0,0,1,2.27-.52,4.5,4.5,0,0,1,2.06.45,3.19,3.19,0,0,1,1.4,1.37,4.83,4.83,0,0,1,.5,2.32v5.49H413v-5.29a2.9,2.9,0,0,0-.67-2.09,2.5,2.5,0,0,0-1.9-.7,3.37,3.37,0,0,0-1.6.36,2.47,2.47,0,0,0-1.06,1.06,3.77,3.77,0,0,0-.36,1.74v4.92Z"/><path class="cls-4" d="M423.87,467.38a4,4,0,0,1-1.33-.23,3.27,3.27,0,0,1-1.12-.65l.74-1.3a2.52,2.52,0,0,0,.79.52,2.39,2.39,0,0,0,.92.18,1.65,1.65,0,0,0,1-.32,2.94,2.94,0,0,0,.78-1.15l.59-1.32.18-.21,3.75-8.66h1.69l-4.63,10.49a5.6,5.6,0,0,1-.92,1.59,3,3,0,0,1-1.13.81A3.49,3.49,0,0,1,423.87,467.38Zm2.27-3.3-4.36-9.84h1.8l3.71,8.49Z"/><path class="cls-4" d="M445,463.92a7.15,7.15,0,0,1-2.66-.48,6.06,6.06,0,0,1-2.11-1.35,6.68,6.68,0,0,1-1.39-7.19,6.29,6.29,0,0,1,1.4-2,6.4,6.4,0,0,1,2.12-1.35,7.52,7.52,0,0,1,5.34,0,5.4,5.4,0,0,1,2.1,1.47l-1.17,1.13A4.8,4.8,0,0,0,447,453a5.12,5.12,0,0,0-1.92-.36,5.36,5.36,0,0,0-2,.36,4.74,4.74,0,0,0-1.57,1,4.81,4.81,0,0,0-1,1.54,5.15,5.15,0,0,0-.36,1.94,5.1,5.1,0,0,0,.36,1.93,4.6,4.6,0,0,0,1,1.54,4.76,4.76,0,0,0,1.57,1,5.36,5.36,0,0,0,2,.36A4.94,4.94,0,0,0,447,462a4.69,4.69,0,0,0,1.62-1.14l1.17,1.13a5.53,5.53,0,0,1-2.1,1.48A7.17,7.17,0,0,1,445,463.92Z"/><path class="cls-4" d="M452.27,463.78v-9.54h1.66v2.59l-.16-.65a2.93,2.93,0,0,1,1.33-1.51,4.63,4.63,0,0,1,2.3-.52v1.67l-.2,0H457a2.94,2.94,0,0,0-2.2.83A3.29,3.29,0,0,0,454,459v4.75Z"/><path class="cls-4" d="M460.7,452.4a1.17,1.17,0,0,1-.84-.32,1.13,1.13,0,0,1,0-1.6,1.14,1.14,0,0,1,.84-.33,1.2,1.2,0,0,1,.84.32,1,1,0,0,1,.33.78,1.12,1.12,0,0,1-.33.82A1.11,1.11,0,0,1,460.7,452.4Zm-.87,11.38v-9.54h1.73v9.54Z"/><path class="cls-4" d="M465.21,467.27v-13h1.66v2.57l-.11,2.22.18,2.21v6Zm5.06-3.38a4.46,4.46,0,0,1-2.17-.55,4,4,0,0,1-1.56-1.63A5.62,5.62,0,0,1,466,459a5.74,5.74,0,0,1,.57-2.7,3.8,3.8,0,0,1,1.55-1.62,4.48,4.48,0,0,1,2.2-.54,4.94,4.94,0,0,1,2.49.61,4.5,4.5,0,0,1,1.71,1.7,5.48,5.48,0,0,1,0,5.1,4.39,4.39,0,0,1-1.71,1.71A5,5,0,0,1,470.27,463.89Zm-.14-1.52a3.26,3.26,0,0,0,1.65-.41,3,3,0,0,0,1.15-1.18,3.62,3.62,0,0,0,.42-1.77,3.58,3.58,0,0,0-.42-1.78,3.12,3.12,0,0,0-1.15-1.16,3.36,3.36,0,0,0-1.65-.41,3.32,3.32,0,0,0-1.63.41,3.05,3.05,0,0,0-1.15,1.16,3.58,3.58,0,0,0-.43,1.78,3.62,3.62,0,0,0,.43,1.77A3,3,0,0,0,468.5,462,3.21,3.21,0,0,0,470.13,462.37Z"/><path class="cls-4" d="M476.48,455.66v-1.42h6.09v1.42Zm4.65,8.23a3.07,3.07,0,0,1-2.24-.78,3,3,0,0,1-.79-2.21v-8.75h1.73v8.68a1.65,1.65,0,0,0,.39,1.18,1.43,1.43,0,0,0,1.11.42,2,2,0,0,0,1.34-.45l.54,1.24a2.3,2.3,0,0,1-.94.5A4,4,0,0,1,481.13,463.89Z"/><path class="cls-4" d="M489.39,463.89a5,5,0,0,1-2.55-.64,4.6,4.6,0,0,1-1.77-1.73,4.92,4.92,0,0,1-.65-2.51,4.81,4.81,0,0,1,.65-2.51,4.69,4.69,0,0,1,1.76-1.72,5.53,5.53,0,0,1,5.11,0,4.55,4.55,0,0,1,1.76,1.72,5.28,5.28,0,0,1,0,5,4.62,4.62,0,0,1-1.76,1.72A5,5,0,0,1,489.39,463.89Zm0-1.52A3.26,3.26,0,0,0,491,462a3,3,0,0,0,1.14-1.18,3.62,3.62,0,0,0,.41-1.77,3.58,3.58,0,0,0-.41-1.78,3.1,3.1,0,0,0-1.14-1.16,3.36,3.36,0,0,0-1.65-.41,3.3,3.3,0,0,0-1.64.41,3.2,3.2,0,0,0-1.15,1.16,3.48,3.48,0,0,0-.43,1.78,3.52,3.52,0,0,0,.43,1.77,3.11,3.11,0,0,0,1.15,1.18A3.2,3.2,0,0,0,489.39,462.37Z"/><path class="cls-5" d="M210.37,723,208,716.6h1.09l2.1,5.76h-.52l2.19-5.76h1l2.13,5.76h-.5l2.15-5.76h1L216.27,723h-1.1l-2-5.25h.33l-2,5.25Z"/><path class="cls-5" d="M221.28,723l-2.37-6.36H220l2.1,5.76h-.52l2.18-5.76h1l2.13,5.76h-.5l2.15-5.76h1L227.18,723h-1.1l-2-5.25h.34l-2,5.25Z"/><path class="cls-5" d="M232.19,723l-2.37-6.36h1.09l2.1,5.76h-.51l2.18-5.76h1l2.14,5.76h-.5l2.14-5.76h1L238.09,723H237l-2-5.25h.34l-2,5.25Z"/><path class="cls-5" d="M241.61,723a.78.78,0,0,1-.58-.23.79.79,0,0,1-.24-.59.76.76,0,0,1,.24-.59.78.78,0,0,1,.58-.23.73.73,0,0,1,.55.23.76.76,0,0,1,.24.59.79.79,0,0,1-.24.59A.73.73,0,0,1,241.61,723Z"/><path class="cls-5" d="M244.17,723v-8.9h1.16V723Z"/><path class="cls-5" d="M250.37,723a3.4,3.4,0,0,1-1.7-.42,3,3,0,0,1-1.18-1.15,3.26,3.26,0,0,1-.44-1.68,3.18,3.18,0,0,1,.44-1.67,3.08,3.08,0,0,1,1.17-1.15,3.44,3.44,0,0,1,1.71-.42,3.39,3.39,0,0,1,1.69.42,2.94,2.94,0,0,1,1.18,1.14,3.5,3.5,0,0,1,0,3.36,3,3,0,0,1-1.18,1.15A3.39,3.39,0,0,1,250.37,723Zm0-1a2.21,2.21,0,0,0,1.09-.28,2,2,0,0,0,.77-.79,2.48,2.48,0,0,0,.27-1.18,2.45,2.45,0,0,0-.27-1.18,2,2,0,0,0-.77-.77,2.28,2.28,0,0,0-2.19,0,2,2,0,0,0-.76.77,2.25,2.25,0,0,0-.29,1.18,2.27,2.27,0,0,0,.29,1.18,2,2,0,0,0,.76.79A2.22,2.22,0,0,0,250.37,722Z"/><path class="cls-5" d="M258,723a3.3,3.3,0,0,1-1.65-.4,3.14,3.14,0,0,1-1.15-1.14,3.39,3.39,0,0,1-.42-1.71,3.35,3.35,0,0,1,.42-1.7,3,3,0,0,1,1.15-1.13,3.31,3.31,0,0,1,1.65-.41,3,3,0,0,1,1.48.36,2.54,2.54,0,0,1,1,1.08,3.87,3.87,0,0,1,.38,1.8,3.75,3.75,0,0,1-.39,1.8,2.74,2.74,0,0,1-1,1.09A2.91,2.91,0,0,1,258,723Zm.1-1a2.17,2.17,0,0,0,1.08-.28A2,2,0,0,0,260,721a2.37,2.37,0,0,0,.28-1.18,2.34,2.34,0,0,0-.28-1.18,2,2,0,0,0-.77-.77,2.07,2.07,0,0,0-1.08-.28,2.12,2.12,0,0,0-1.1.28,2,2,0,0,0-.76.77,2.25,2.25,0,0,0-.29,1.18,2.27,2.27,0,0,0,.29,1.18,2,2,0,0,0,.76.79A2.22,2.22,0,0,0,258.11,722Zm2.12,3.26v-4l.12-1.48-.07-1.47V716.6h1.1v8.69Z"/><path class="cls-5" d="M266.36,723a3.23,3.23,0,0,1-1.43-.3,2.13,2.13,0,0,1-1-.92,3.15,3.15,0,0,1-.34-1.55V716.6h1.15v3.53a2,2,0,0,0,.45,1.4,1.67,1.67,0,0,0,1.26.47,2.09,2.09,0,0,0,1.05-.25,1.67,1.67,0,0,0,.68-.71,2.54,2.54,0,0,0,.24-1.15V716.6h1.15V723h-1.09v-1.71l.18.45a2.2,2.2,0,0,1-.93,1A2.78,2.78,0,0,1,266.36,723Z"/><path class="cls-5" d="M274.76,723a3.67,3.67,0,0,1-1.79-.42,3,3,0,0,1-1.2-1.15,3.23,3.23,0,0,1-.43-1.68,3.33,3.33,0,0,1,.42-1.68A2.84,2.84,0,0,1,272.9,717a3.19,3.19,0,0,1,1.63-.42,3.27,3.27,0,0,1,1.64.41,2.9,2.9,0,0,1,1.11,1.14,3.68,3.68,0,0,1,.4,1.73,1.09,1.09,0,0,1,0,.17,1.1,1.1,0,0,1,0,.18h-5.41v-.83h4.81l-.46.29a2.21,2.21,0,0,0-.26-1.1,1.86,1.86,0,0,0-.72-.75,2.11,2.11,0,0,0-1.08-.27,2.06,2.06,0,0,0-1.06.27,1.87,1.87,0,0,0-.74.76,2.33,2.33,0,0,0-.26,1.11v.19a2.24,2.24,0,0,0,.29,1.13,2,2,0,0,0,.83.78,2.73,2.73,0,0,0,2.23.08,2.17,2.17,0,0,0,.81-.57l.64.74a2.85,2.85,0,0,1-1.07.77A3.69,3.69,0,0,1,274.76,723Z"/><path class="cls-5" d="M278.48,717.55v-.95h4.06v.95Zm3.1,5.48a2.06,2.06,0,0,1-1.49-.51,2,2,0,0,1-.53-1.48v-5.83h1.15V721a1.15,1.15,0,0,0,.26.8,1,1,0,0,0,.74.27,1.36,1.36,0,0,0,.9-.3l.36.83a1.73,1.73,0,0,1-.63.33A2.41,2.41,0,0,1,281.58,723Z"/><path class="cls-5" d="M287.07,723a3.7,3.7,0,0,1-1.79-.42,3,3,0,0,1-1.2-1.15,3.53,3.53,0,0,1,0-3.36,2.84,2.84,0,0,1,1.14-1.14,3.43,3.43,0,0,1,3.27,0,2.9,2.9,0,0,1,1.11,1.14,3.56,3.56,0,0,1,.4,1.73,1.09,1.09,0,0,1,0,.17c0,.06,0,.12,0,.18h-5.42v-.83h4.82l-.47.29a2.2,2.2,0,0,0-.25-1.1,2,2,0,0,0-.73-.75,2.26,2.26,0,0,0-2.14,0,1.85,1.85,0,0,0-.73.76,2.23,2.23,0,0,0-.27,1.11v.19a2.15,2.15,0,0,0,.3,1.13,1.93,1.93,0,0,0,.82.78,2.75,2.75,0,0,0,2.24.08,2.35,2.35,0,0,0,.81-.57l.63.74a2.78,2.78,0,0,1-1.07.77A3.69,3.69,0,0,1,287.07,723Z"/><path class="cls-5" d="M292.28,715.38a.8.8,0,0,1-.56-.22.73.73,0,0,1-.22-.53.77.77,0,0,1,.22-.54.79.79,0,0,1,.56-.21.78.78,0,0,1,.56.21.67.67,0,0,1,.22.52.77.77,0,0,1-.21.55A.81.81,0,0,1,292.28,715.38Zm-.57,7.58V716.6h1.15V723Z"/><path class="cls-5" d="M295.17,723V716.6h1.11v1.72l-.18-.46a2.25,2.25,0,0,1,1-1,3.15,3.15,0,0,1,1.51-.35,3,3,0,0,1,1.37.3,2.1,2.1,0,0,1,.93.91,3.15,3.15,0,0,1,.34,1.55V723h-1.15v-3.53a1.94,1.94,0,0,0-.45-1.39,1.7,1.7,0,0,0-1.27-.47,2.28,2.28,0,0,0-1.07.24,1.71,1.71,0,0,0-.7.71,2.52,2.52,0,0,0-.24,1.16V723Z"/><path class="cls-5" d="M302.55,717.55v-.95h4.06v.95Zm3.1,5.48a2.06,2.06,0,0,1-1.49-.51,2,2,0,0,1-.53-1.48v-5.83h1.15V721a1.15,1.15,0,0,0,.26.8,1,1,0,0,0,.74.27,1.36,1.36,0,0,0,.9-.3l.36.83a1.73,1.73,0,0,1-.63.33A2.41,2.41,0,0,1,305.65,723Z"/><path class="cls-5" d="M311.14,723a3.7,3.7,0,0,1-1.79-.42,3,3,0,0,1-1.2-1.15,3.53,3.53,0,0,1,0-3.36,3,3,0,0,1,1.14-1.14,3.43,3.43,0,0,1,3.27,0,2.9,2.9,0,0,1,1.11,1.14,3.56,3.56,0,0,1,.4,1.73,53.81,53.81,0,0,0,0,.35h-5.41v-.83h4.81l-.47.29a2.2,2.2,0,0,0-.25-1.1,2,2,0,0,0-.73-.75,2.26,2.26,0,0,0-2.14,0,1.85,1.85,0,0,0-.73.76,2.23,2.23,0,0,0-.27,1.11v.19a2.15,2.15,0,0,0,.3,1.13,1.93,1.93,0,0,0,.82.78,2.75,2.75,0,0,0,2.24.08,2.35,2.35,0,0,0,.81-.57l.63.74a2.78,2.78,0,0,1-1.07.77A3.69,3.69,0,0,1,311.14,723Z"/><path class="cls-5" d="M315.78,723V716.6h1.1v1.73l-.11-.43a2,2,0,0,1,.89-1,3.16,3.16,0,0,1,1.54-.35v1.12l-.14,0h-.13a2,2,0,0,0-1.46.56,2.19,2.19,0,0,0-.54,1.59V723Z"/><path class="cls-5" d="M323.47,723a3.74,3.74,0,0,1-1.8-.42,3.09,3.09,0,0,1-1.2-1.15,3.33,3.33,0,0,1-.42-1.68,3.43,3.43,0,0,1,.41-1.68A3,3,0,0,1,321.6,717a3.43,3.43,0,0,1,3.27,0,2.9,2.9,0,0,1,1.11,1.14,3.56,3.56,0,0,1,.4,1.73V720a1.1,1.1,0,0,1,0,.18H321v-.83h4.81l-.47.29a2.1,2.1,0,0,0-.25-1.1,1.88,1.88,0,0,0-.73-.75,2,2,0,0,0-1.07-.27,2.13,2.13,0,0,0-1.07.27,1.91,1.91,0,0,0-.73.76,2.22,2.22,0,0,0-.26,1.11v.19a2.14,2.14,0,0,0,.29,1.13,2,2,0,0,0,.82.78,2.75,2.75,0,0,0,2.24.08,2.17,2.17,0,0,0,.81-.57l.64.74a2.81,2.81,0,0,1-1.08.77A3.64,3.64,0,0,1,323.47,723Z"/><path class="cls-5" d="M329.92,723a5.28,5.28,0,0,1-1.5-.21,3.54,3.54,0,0,1-1.12-.53l.48-.91a3.65,3.65,0,0,0,1,.46,3.85,3.85,0,0,0,1.22.2,2.25,2.25,0,0,0,1.16-.23.72.72,0,0,0,.35-.64.53.53,0,0,0-.22-.46,1.37,1.37,0,0,0-.57-.26l-.78-.15a8.17,8.17,0,0,1-.86-.17,3.29,3.29,0,0,1-.8-.28,1.51,1.51,0,0,1-.57-.52,1.53,1.53,0,0,1-.22-.88,1.61,1.61,0,0,1,.33-1,2,2,0,0,1,.91-.66,3.78,3.78,0,0,1,1.41-.24,5.57,5.57,0,0,1,1.27.15,3,3,0,0,1,1.05.43L332,718a3,3,0,0,0-.9-.4,4.36,4.36,0,0,0-.94-.1,2.13,2.13,0,0,0-1.13.24.72.72,0,0,0-.37.63.59.59,0,0,0,.22.5,1.65,1.65,0,0,0,.58.27,7.12,7.12,0,0,0,.78.16c.29,0,.58.1.87.17a3.68,3.68,0,0,1,.79.28,1.55,1.55,0,0,1,.57.51,1.46,1.46,0,0,1,.22.86,1.54,1.54,0,0,1-.33,1,2.25,2.25,0,0,1-.95.66A4.05,4.05,0,0,1,329.92,723Z"/><path class="cls-5" d="M336.09,723a3,3,0,0,1-1.24-.24,1.88,1.88,0,0,1-.82-.66,1.73,1.73,0,0,1-.29-1,1.79,1.79,0,0,1,.25-.94,1.75,1.75,0,0,1,.8-.67,3.71,3.71,0,0,1,1.51-.25h2v.83h-2a1.67,1.67,0,0,0-1.16.29.92.92,0,0,0-.3.69.89.89,0,0,0,.37.75,1.66,1.66,0,0,0,1,.28,2.22,2.22,0,0,0,1.14-.28,1.66,1.66,0,0,0,.7-.84l.23.79a1.77,1.77,0,0,1-.8.89A2.92,2.92,0,0,1,336.09,723Zm2.09-.07v-1.34l-.06-.25v-2.3a1.46,1.46,0,0,0-.43-1.13,1.78,1.78,0,0,0-1.27-.4,3.49,3.49,0,0,0-1.11.18,2.94,2.94,0,0,0-.91.5l-.48-.86a3.39,3.39,0,0,1,1.18-.61,5,5,0,0,1,1.45-.21,2.87,2.87,0,0,1,2,.64,2.44,2.44,0,0,1,.71,1.94V723Z"/><path class="cls-5" d="M341.8,723a.77.77,0,0,1-.57-.23.79.79,0,0,1-.24-.59.76.76,0,0,1,.24-.59.77.77,0,0,1,.57-.23.73.73,0,0,1,.56.23.76.76,0,0,1,.24.59.79.79,0,0,1-.24.59A.73.73,0,0,1,341.8,723Z"/><path class="cls-5" d="M346.9,723a3.54,3.54,0,0,1-1.73-.42,3,3,0,0,1-1.19-1.15,3.43,3.43,0,0,1,0-3.36,2.91,2.91,0,0,1,1.19-1.14,3.74,3.74,0,0,1,3.28-.08,2.46,2.46,0,0,1,1.05,1l-.88.56a2,2,0,0,0-.76-.69,2.13,2.13,0,0,0-1-.22,2.16,2.16,0,0,0-1.11.28,2,2,0,0,0-.78.77,2.25,2.25,0,0,0-.29,1.18A2.28,2.28,0,0,0,345,721a2,2,0,0,0,.78.78,2.26,2.26,0,0,0,1.11.28,2.13,2.13,0,0,0,1-.23,1.92,1.92,0,0,0,.76-.69l.88.56a2.55,2.55,0,0,1-1.05,1A3.28,3.28,0,0,1,346.9,723Z"/><path class="cls-5" d="M353.71,723a3.4,3.4,0,0,1-1.7-.42,3,3,0,0,1-1.18-1.15,3.26,3.26,0,0,1-.44-1.68,3.18,3.18,0,0,1,.44-1.67A3.08,3.08,0,0,1,352,717a3.44,3.44,0,0,1,1.71-.42,3.39,3.39,0,0,1,1.69.42,2.94,2.94,0,0,1,1.18,1.14,3.5,3.5,0,0,1,0,3.36,3,3,0,0,1-1.18,1.15A3.39,3.39,0,0,1,353.71,723Zm0-1a2.21,2.21,0,0,0,1.09-.28,2,2,0,0,0,.77-.79,2.48,2.48,0,0,0,.27-1.18,2.45,2.45,0,0,0-.27-1.18,2,2,0,0,0-.77-.77,2.28,2.28,0,0,0-2.19,0,2.08,2.08,0,0,0-.76.77,2.25,2.25,0,0,0-.29,1.18,2.27,2.27,0,0,0,.29,1.18,2.07,2.07,0,0,0,.76.79A2.22,2.22,0,0,0,353.71,722Z"/><path class="cls-5" d="M358.72,723V716.6h1.11v1.69l-.18-.43a2.21,2.21,0,0,1,.92-1,3,3,0,0,1,1.45-.35,2.69,2.69,0,0,1,1.57.45,2.13,2.13,0,0,1,.87,1.36l-.47-.19a2.34,2.34,0,0,1,1-1.17,3.1,3.1,0,0,1,1.68-.45,3,3,0,0,1,1.36.3,2.1,2.1,0,0,1,.91.91,3.26,3.26,0,0,1,.33,1.55V723h-1.15v-3.53a2,2,0,0,0-.43-1.39,1.57,1.57,0,0,0-1.21-.47,2,2,0,0,0-1,.24,1.65,1.65,0,0,0-.67.71,2.66,2.66,0,0,0-.23,1.16V723h-1.15v-3.53A2,2,0,0,0,363,718a1.57,1.57,0,0,0-1.22-.47,2,2,0,0,0-1,.24,1.59,1.59,0,0,0-.67.71,2.52,2.52,0,0,0-.24,1.16V723Z"/><path class="cls-5" d="M371.8,723a.77.77,0,0,1-.57-.23.79.79,0,0,1-.24-.59.76.76,0,0,1,.24-.59.77.77,0,0,1,.57-.23.79.79,0,0,1,.79.82.78.78,0,0,1-.23.59A.75.75,0,0,1,371.8,723Z"/><path class="cls-5" d="M376.35,723a3,3,0,0,1-1.24-.24,1.88,1.88,0,0,1-.82-.66,1.65,1.65,0,0,1-.29-1,1.88,1.88,0,0,1,.24-.94,1.83,1.83,0,0,1,.81-.67,3.66,3.66,0,0,1,1.5-.25h2v.83h-2a1.67,1.67,0,0,0-1.16.29.92.92,0,0,0-.3.69.89.89,0,0,0,.37.75,1.66,1.66,0,0,0,1,.28,2.24,2.24,0,0,0,1.14-.28,1.71,1.71,0,0,0,.7-.84l.23.79a1.79,1.79,0,0,1-.81.89A2.88,2.88,0,0,1,376.35,723Zm2.09-.07v-1.34l-.06-.25v-2.3a1.46,1.46,0,0,0-.43-1.13,1.79,1.79,0,0,0-1.28-.4,3.47,3.47,0,0,0-1.1.18,2.94,2.94,0,0,0-.91.5l-.48-.86a3.39,3.39,0,0,1,1.18-.61,4.94,4.94,0,0,1,1.45-.21,2.87,2.87,0,0,1,2,.64,2.48,2.48,0,0,1,.71,1.94V723Z"/><path class="cls-5" d="M381.79,723V716.6h1.1v1.73l-.11-.43a2,2,0,0,1,.89-1,3.16,3.16,0,0,1,1.54-.35v1.12l-.14,0h-.13a2,2,0,0,0-1.46.56,2.19,2.19,0,0,0-.54,1.59V723Z"/><path class="cls-5" d="M203.79,744.06a4.84,4.84,0,0,1-1.77-.32,4.15,4.15,0,0,1-1.41-.9,4.44,4.44,0,0,1-.93-1.36,4.3,4.3,0,0,1,.94-4.8,4.31,4.31,0,0,1,1.41-.9,4.84,4.84,0,0,1,1.77-.32,4.91,4.91,0,0,1,1.79.33,3.66,3.66,0,0,1,1.4,1l-.78.76a3,3,0,0,0-1.08-.75,3.43,3.43,0,0,0-1.28-.25,3.6,3.6,0,0,0-1.32.24,3.22,3.22,0,0,0-1.05.68,3.17,3.17,0,0,0-.69,1,3.44,3.44,0,0,0-.24,1.29,3.4,3.4,0,0,0,.24,1.29,3,3,0,0,0,1.74,1.7,3.6,3.6,0,0,0,1.32.24,3.25,3.25,0,0,0,1.28-.25,2.92,2.92,0,0,0,1.08-.76l.78.76a3.66,3.66,0,0,1-1.4,1A4.58,4.58,0,0,1,203.79,744.06Z"/><path class="cls-5" d="M211,744a3.39,3.39,0,0,1-1.69-.42,3,3,0,0,1-1.18-1.15,3.26,3.26,0,0,1-.44-1.68,3.18,3.18,0,0,1,.44-1.67,3,3,0,0,1,1.17-1.15,3.65,3.65,0,0,1,3.4,0,3,3,0,0,1,1.18,1.14,3.5,3.5,0,0,1,0,3.36,3.1,3.1,0,0,1-1.18,1.15A3.4,3.4,0,0,1,211,744Zm0-1a2.22,2.22,0,0,0,1.1-.28,1.87,1.87,0,0,0,.76-.79,2.37,2.37,0,0,0,.28-1.18,2.34,2.34,0,0,0-.28-1.18,1.88,1.88,0,0,0-.76-.77,2.28,2.28,0,0,0-2.19,0,2,2,0,0,0-.76.77,2.25,2.25,0,0,0-.29,1.18,2.27,2.27,0,0,0,.29,1.18,2,2,0,0,0,.76.79A2.21,2.21,0,0,0,211,743Z"/><path class="cls-5" d="M216,744V737.6h1.11v1.72l-.18-.46a2.14,2.14,0,0,1,1-1,3.15,3.15,0,0,1,1.51-.35,3,3,0,0,1,1.37.3,2.1,2.1,0,0,1,.93.91,3.15,3.15,0,0,1,.34,1.55V744h-1.15v-3.53a1.94,1.94,0,0,0-.45-1.39,1.7,1.7,0,0,0-1.27-.47,2.28,2.28,0,0,0-1.07.24,1.65,1.65,0,0,0-.7.71,2.52,2.52,0,0,0-.25,1.16V744Z"/><path class="cls-5" d="M229.48,744a3,3,0,0,1-1.24-.24,1.88,1.88,0,0,1-.82-.66,1.65,1.65,0,0,1-.29-1,1.79,1.79,0,0,1,.25-.94,1.75,1.75,0,0,1,.8-.67,3.66,3.66,0,0,1,1.5-.25h2v.83h-2a1.67,1.67,0,0,0-1.16.29.92.92,0,0,0-.3.69.89.89,0,0,0,.37.75,1.66,1.66,0,0,0,1,.28,2.22,2.22,0,0,0,1.14-.28,1.71,1.71,0,0,0,.7-.84l.23.79a1.74,1.74,0,0,1-.81.89A2.88,2.88,0,0,1,229.48,744Zm2.09-.07v-1.34l-.06-.25v-2.3a1.46,1.46,0,0,0-.43-1.13,1.79,1.79,0,0,0-1.28-.4,3.47,3.47,0,0,0-1.1.18,2.94,2.94,0,0,0-.91.5l-.48-.86a3.39,3.39,0,0,1,1.18-.61,4.94,4.94,0,0,1,1.45-.21,2.87,2.87,0,0,1,2,.64,2.48,2.48,0,0,1,.71,1.94V744Z"/><path class="cls-5" d="M234.92,746.29V737.6H236v1.72l-.07,1.47.12,1.48v4Zm3.37-2.26a3,3,0,0,1-1.45-.36,2.74,2.74,0,0,1-1-1.09,4.4,4.4,0,0,1,0-3.6,2.5,2.5,0,0,1,1-1.08,3,3,0,0,1,1.47-.36,3.31,3.31,0,0,1,1.65.41,3,3,0,0,1,1.14,1.13,3.35,3.35,0,0,1,.42,1.7,3.39,3.39,0,0,1-.42,1.71,3.12,3.12,0,0,1-1.14,1.14A3.3,3.3,0,0,1,238.29,744Zm-.1-1a2.22,2.22,0,0,0,1.1-.28,2,2,0,0,0,.77-.79,2.37,2.37,0,0,0,.28-1.18,2.34,2.34,0,0,0-.28-1.18,2,2,0,0,0-.77-.77,2.12,2.12,0,0,0-1.1-.28,2.07,2.07,0,0,0-1.08.28,2,2,0,0,0-.77.77,2.34,2.34,0,0,0-.28,1.18,2.37,2.37,0,0,0,.28,1.18,2,2,0,0,0,.77.79A2.17,2.17,0,0,0,238.19,743Z"/><path class="cls-5" d="M245.94,744a3.39,3.39,0,0,1-1.69-.42,3,3,0,0,1-1.18-1.15,3.26,3.26,0,0,1-.44-1.68,3.18,3.18,0,0,1,.44-1.67,3,3,0,0,1,1.17-1.15,3.65,3.65,0,0,1,3.4,0,3,3,0,0,1,1.18,1.14,3.5,3.5,0,0,1,0,3.36,3.1,3.1,0,0,1-1.18,1.15A3.4,3.4,0,0,1,245.94,744Zm0-1a2.22,2.22,0,0,0,1.1-.28,1.87,1.87,0,0,0,.76-.79,2.37,2.37,0,0,0,.28-1.18,2.34,2.34,0,0,0-.28-1.18,1.88,1.88,0,0,0-.76-.77,2.28,2.28,0,0,0-2.19,0,2,2,0,0,0-.76.77,2.25,2.25,0,0,0-.29,1.18,2.27,2.27,0,0,0,.29,1.18,2,2,0,0,0,.76.79A2.21,2.21,0,0,0,245.94,743Z"/><path class="cls-5" d="M251.07,746.36a2.68,2.68,0,0,1-.89-.15,2.11,2.11,0,0,1-.74-.44l.49-.86a1.69,1.69,0,0,0,.53.35,1.54,1.54,0,0,0,.61.12,1.1,1.1,0,0,0,.69-.22,1.87,1.87,0,0,0,.52-.77l.4-.87.12-.15,2.49-5.77h1.13l-3.08,7a3.78,3.78,0,0,1-.62,1,2,2,0,0,1-.75.55A2.36,2.36,0,0,1,251.07,746.36Zm1.51-2.19-2.9-6.57h1.2l2.47,5.66Z"/><path class="cls-5" d="M260.16,744a3.39,3.39,0,0,1-1.69-.42,3.13,3.13,0,0,1-1.19-1.15,3.36,3.36,0,0,1-.43-1.68,3.27,3.27,0,0,1,.43-1.67,3.1,3.1,0,0,1,1.18-1.15,3.65,3.65,0,0,1,3.4,0A3,3,0,0,1,263,739.1a3.57,3.57,0,0,1,0,3.36,3.1,3.1,0,0,1-1.18,1.15A3.4,3.4,0,0,1,260.16,744Zm0-1a2.22,2.22,0,0,0,1.1-.28A1.87,1.87,0,0,0,262,742a2.37,2.37,0,0,0,.28-1.18,2.34,2.34,0,0,0-.28-1.18,1.88,1.88,0,0,0-.76-.77,2.16,2.16,0,0,0-3,.77,2.34,2.34,0,0,0-.28,1.18,2.37,2.37,0,0,0,.28,1.18,2.09,2.09,0,0,0,.77.79A2.21,2.21,0,0,0,260.16,743Z"/><path class="cls-5" d="M271.36,744a3.67,3.67,0,0,1-1.79-.42,3,3,0,0,1-1.2-1.15,3.23,3.23,0,0,1-.43-1.68,3.33,3.33,0,0,1,.42-1.68A2.84,2.84,0,0,1,269.5,738a3.19,3.19,0,0,1,1.63-.42,3.27,3.27,0,0,1,1.64.41,2.9,2.9,0,0,1,1.11,1.14,3.68,3.68,0,0,1,.4,1.73,1.09,1.09,0,0,1,0,.17,1.1,1.1,0,0,1,0,.18h-5.41v-.83h4.81l-.46.29a2.21,2.21,0,0,0-.26-1.1,1.92,1.92,0,0,0-.72-.75,2.11,2.11,0,0,0-1.08-.27,2.06,2.06,0,0,0-1.06.27,1.87,1.87,0,0,0-.74.76,2.33,2.33,0,0,0-.26,1.11v.19a2.24,2.24,0,0,0,.29,1.13,2,2,0,0,0,.83.78,2.73,2.73,0,0,0,2.23.08,2.17,2.17,0,0,0,.81-.57l.64.74a2.85,2.85,0,0,1-1.07.77A3.69,3.69,0,0,1,271.36,744Z"/><path class="cls-5" d="M278.62,744a3.3,3.3,0,0,1-1.65-.4,3.22,3.22,0,0,1-1.15-1.14,3.49,3.49,0,0,1-.42-1.71,3.45,3.45,0,0,1,.42-1.7A3.12,3.12,0,0,1,277,738a3.31,3.31,0,0,1,1.65-.41,2.91,2.91,0,0,1,1.45.36,2.65,2.65,0,0,1,1,1.08,4.4,4.4,0,0,1,0,3.6,2.63,2.63,0,0,1-1,1.09A3,3,0,0,1,278.62,744Zm.1-1a2.17,2.17,0,0,0,1.08-.28,2,2,0,0,0,.77-.79,2.37,2.37,0,0,0,.28-1.18,2.34,2.34,0,0,0-.28-1.18,2,2,0,0,0-.77-.77,2.24,2.24,0,0,0-2.17,0,2,2,0,0,0-.77.77,2.34,2.34,0,0,0-.29,1.18,2.37,2.37,0,0,0,.29,1.18,2,2,0,0,0,.77.79A2.15,2.15,0,0,0,278.72,743Zm2.17.93v-1.71l.07-1.48-.12-1.48v-4.23H282V744Z"/><path class="cls-5" d="M284.87,736.38a.76.76,0,0,1-.55-.22.7.7,0,0,1-.23-.53.74.74,0,0,1,.23-.54.75.75,0,0,1,.55-.21.78.78,0,0,1,.56.21.67.67,0,0,1,.22.52.77.77,0,0,1-.21.55A.79.79,0,0,1,284.87,736.38ZM284.3,744V737.6h1.15V744Z"/><path class="cls-5" d="M286.61,738.55v-.95h4.06v.95Zm3.1,5.48a2.06,2.06,0,0,1-1.49-.51,2,2,0,0,1-.53-1.48v-5.83h1.16V742a1.15,1.15,0,0,0,.25.8,1,1,0,0,0,.74.27,1.36,1.36,0,0,0,.9-.3l.36.83a1.58,1.58,0,0,1-.63.33A2.41,2.41,0,0,1,289.71,744Z"/><path class="cls-5" d="M295.1,744a3.43,3.43,0,0,1-1.7-.42,3.1,3.1,0,0,1-1.18-1.15,3.26,3.26,0,0,1-.43-1.68,3.14,3.14,0,0,1,1.6-2.82,3.67,3.67,0,0,1,3.41,0A2.92,2.92,0,0,1,298,739.1a3.5,3.5,0,0,1,0,3.36,3,3,0,0,1-1.17,1.15A3.43,3.43,0,0,1,295.1,744Zm0-1a2.25,2.25,0,0,0,1.1-.28A2,2,0,0,0,297,742a2.48,2.48,0,0,0,.27-1.18,2.45,2.45,0,0,0-.27-1.18,2,2,0,0,0-.76-.77,2.14,2.14,0,0,0-1.1-.28,2.08,2.08,0,0,0-1.09.28,2,2,0,0,0-.77.77,2.34,2.34,0,0,0-.29,1.18,2.37,2.37,0,0,0,.29,1.18,2,2,0,0,0,.77.79A2.18,2.18,0,0,0,295.1,743Z"/><path class="cls-5" d="M300.11,744V737.6h1.11v1.73l-.11-.43a2,2,0,0,1,.89-1,3.12,3.12,0,0,1,1.53-.35v1.12l-.13,0h-.13a1.94,1.94,0,0,0-1.46.56,2.19,2.19,0,0,0-.54,1.59V744Z"/><path class="cls-5" d="M305.61,736.38a.8.8,0,0,1-.56-.22.69.69,0,0,1-.22-.53.73.73,0,0,1,.22-.54.85.85,0,0,1,1.12,0,.67.67,0,0,1,.22.52.74.74,0,0,1-.22.55A.77.77,0,0,1,305.61,736.38ZM305,744V737.6h1.16V744Z"/><path class="cls-5" d="M310.36,744a3,3,0,0,1-1.24-.24,1.88,1.88,0,0,1-.82-.66,1.73,1.73,0,0,1-.29-1,1.88,1.88,0,0,1,.24-.94,1.83,1.83,0,0,1,.81-.67,3.68,3.68,0,0,1,1.51-.25h2v.83h-2a1.67,1.67,0,0,0-1.16.29.92.92,0,0,0-.3.69.89.89,0,0,0,.37.75,1.66,1.66,0,0,0,1,.28,2.22,2.22,0,0,0,1.14-.28,1.66,1.66,0,0,0,.7-.84l.23.79a1.79,1.79,0,0,1-.81.89A2.86,2.86,0,0,1,310.36,744Zm2.09-.07v-1.34l-.06-.25v-2.3a1.46,1.46,0,0,0-.43-1.13,1.78,1.78,0,0,0-1.27-.4,3.49,3.49,0,0,0-1.11.18,2.94,2.94,0,0,0-.91.5l-.48-.86a3.39,3.39,0,0,1,1.18-.61,4.94,4.94,0,0,1,1.45-.21,2.87,2.87,0,0,1,2,.64,2.48,2.48,0,0,1,.71,1.94V744Z"/><path class="cls-5" d="M315.8,744v-8.9H317V744Z"/><path class="cls-5" d="M325.24,744a3.3,3.3,0,0,1-1.65-.4,3.14,3.14,0,0,1-1.15-1.14,3.39,3.39,0,0,1-.42-1.71,3.35,3.35,0,0,1,.42-1.7,3,3,0,0,1,1.15-1.13,3.31,3.31,0,0,1,1.65-.41,2.91,2.91,0,0,1,1.45.36,2.65,2.65,0,0,1,1,1.08,3.75,3.75,0,0,1,.39,1.8,3.87,3.87,0,0,1-.38,1.8,2.63,2.63,0,0,1-1,1.09A3,3,0,0,1,325.24,744Zm.1-1a2.17,2.17,0,0,0,1.08-.28,2,2,0,0,0,.77-.79,2.37,2.37,0,0,0,.28-1.18,2.34,2.34,0,0,0-.28-1.18,2,2,0,0,0-.77-.77,2.07,2.07,0,0,0-1.08-.28,2.12,2.12,0,0,0-1.1.28,2,2,0,0,0-.76.77,2.25,2.25,0,0,0-.29,1.18,2.27,2.27,0,0,0,.29,1.18,2,2,0,0,0,.76.79A2.22,2.22,0,0,0,325.34,743Zm2.17.93v-1.71l.07-1.48-.12-1.48v-4.23h1.15V744Z"/><path class="cls-5" d="M333.75,744a3.74,3.74,0,0,1-1.8-.42,3.09,3.09,0,0,1-1.2-1.15,3.61,3.61,0,0,1,0-3.36,3,3,0,0,1,1.14-1.14,3.43,3.43,0,0,1,3.27,0,2.9,2.9,0,0,1,1.11,1.14,3.56,3.56,0,0,1,.4,1.73V741c0,.06,0,.12,0,.18h-5.41v-.83H336l-.47.29a2.1,2.1,0,0,0-.25-1.1,2,2,0,0,0-.73-.75,2,2,0,0,0-1.07-.27,2.1,2.1,0,0,0-1.07.27,1.91,1.91,0,0,0-.73.76,2.22,2.22,0,0,0-.26,1.11v.19a2.14,2.14,0,0,0,.29,1.13,2,2,0,0,0,.82.78,2.75,2.75,0,0,0,2.24.08,2.17,2.17,0,0,0,.81-.57l.63.74a2.7,2.7,0,0,1-1.07.77A3.64,3.64,0,0,1,333.75,744Z"/><path class="cls-5" d="M345.65,744.06a4.84,4.84,0,0,1-1.77-.32,4,4,0,0,1-1.4-.9,4.12,4.12,0,0,1-.93-1.36,4.33,4.33,0,0,1,.93-4.8,4.31,4.31,0,0,1,1.41-.9,4.84,4.84,0,0,1,1.77-.32,5,5,0,0,1,1.8.33,3.7,3.7,0,0,1,1.39,1l-.77.76a3.2,3.2,0,0,0-1.08-.75,3.57,3.57,0,0,0-2.6,0,3,3,0,0,0-1,.68,2.88,2.88,0,0,0-.69,1,3.26,3.26,0,0,0-.25,1.29,3.23,3.23,0,0,0,.25,1.29,2.92,2.92,0,0,0,.69,1,3,3,0,0,0,1,.67,3.51,3.51,0,0,0,1.31.24,3.3,3.3,0,0,0,1.29-.25,3.09,3.09,0,0,0,1.08-.76l.77.76a3.7,3.7,0,0,1-1.39,1A4.63,4.63,0,0,1,345.65,744.06Z"/><path class="cls-5" d="M350.4,744v-8.9h1.15v4.26l-.22-.46a2.14,2.14,0,0,1,1-1,3.15,3.15,0,0,1,1.51-.35,3,3,0,0,1,1.37.3,2.1,2.1,0,0,1,.93.91,3.15,3.15,0,0,1,.34,1.55V744h-1.15v-3.53a1.94,1.94,0,0,0-.45-1.39,1.7,1.7,0,0,0-1.27-.47,2.28,2.28,0,0,0-1.07.24,1.65,1.65,0,0,0-.7.71,2.52,2.52,0,0,0-.25,1.16V744Z"/><path class="cls-5" d="M360.55,744a3,3,0,0,1-1.24-.24,1.94,1.94,0,0,1-.82-.66,1.73,1.73,0,0,1-.29-1,1.79,1.79,0,0,1,.25-.94,1.75,1.75,0,0,1,.8-.67,3.74,3.74,0,0,1,1.51-.25h2v.83h-2a1.69,1.69,0,0,0-1.17.29.94.94,0,0,0,.07,1.44,1.69,1.69,0,0,0,1,.28,2.18,2.18,0,0,0,1.13-.28,1.66,1.66,0,0,0,.7-.84l.23.79a1.77,1.77,0,0,1-.8.89A2.92,2.92,0,0,1,360.55,744Zm2.09-.07v-1.34l-.06-.25v-2.3a1.49,1.49,0,0,0-.42-1.13,1.8,1.8,0,0,0-1.28-.4,3.49,3.49,0,0,0-1.11.18,2.94,2.94,0,0,0-.91.5l-.48-.86a3.39,3.39,0,0,1,1.18-.61,5,5,0,0,1,1.45-.21,2.92,2.92,0,0,1,2,.64,2.48,2.48,0,0,1,.7,1.94V744Z"/><path class="cls-5" d="M365.08,738.55v-.95h4.05v.95Zm3.09,5.48a2,2,0,0,1-1.48-.51,2,2,0,0,1-.53-1.48v-5.83h1.15V742a1.15,1.15,0,0,0,.26.8,1,1,0,0,0,.74.27,1.36,1.36,0,0,0,.9-.3l.36.83a1.73,1.73,0,0,1-.63.33A2.47,2.47,0,0,1,368.17,744Z"/><path class="cls-5" d="M375,744.06a4.91,4.91,0,0,1-1.79-.32,4.19,4.19,0,0,1-1.42-.9,4.12,4.12,0,0,1-.93-1.36,4.3,4.3,0,0,1,.94-4.8,4.35,4.35,0,0,1,1.42-.9,5,5,0,0,1,1.8-.32,4.92,4.92,0,0,1,1.83.33,3.53,3.53,0,0,1,1.4,1l-.74.74a3.32,3.32,0,0,0-1.13-.73,3.51,3.51,0,0,0-1.31-.24,3.67,3.67,0,0,0-1.34.24,3.21,3.21,0,0,0-1.07.68,2.88,2.88,0,0,0-.69,1,3.26,3.26,0,0,0-.25,1.29A3.21,3.21,0,0,0,372,741a3,3,0,0,0,.69,1,3.21,3.21,0,0,0,1.07.68,3.58,3.58,0,0,0,1.33.24,4,4,0,0,0,1.29-.21,3.12,3.12,0,0,0,1.14-.7l.69.91a4.31,4.31,0,0,1-1.46.8A5.57,5.57,0,0,1,375,744.06Zm3.18-1.07-1.15-.16v-3.12h1.15Z"/><path class="cls-5" d="M380.63,744v-8.4h3.28a4.64,4.64,0,0,1,1.88.35,2.66,2.66,0,0,1,1.2,1,2.85,2.85,0,0,1,.42,1.57,2.8,2.8,0,0,1-.42,1.56,2.66,2.66,0,0,1-1.2,1,4.47,4.47,0,0,1-1.88.36h-2.62l.54-.57V744Zm1.2-3-.54-.6h2.58a2.68,2.68,0,0,0,1.75-.49,1.93,1.93,0,0,0,0-2.78,2.68,2.68,0,0,0-1.75-.5h-2.58l.54-.6Z"/><path class="cls-5" d="M390.66,744V736.6h-2.88v-1h7v1h-2.88V744Z"/><path class="cls-5" d="M282.51,765v-.82l3.42-3.3a4.79,4.79,0,0,0,.68-.76,2.63,2.63,0,0,0,.3-.61,2.13,2.13,0,0,0,.07-.55,1.22,1.22,0,0,0-.45-1,2.07,2.07,0,0,0-1.33-.38,3.36,3.36,0,0,0-1.22.22,2.34,2.34,0,0,0-.93.7l-.82-.71a3.07,3.07,0,0,1,1.29-1,4.9,4.9,0,0,1,1.78-.33,3.76,3.76,0,0,1,1.53.29,2.24,2.24,0,0,1,1,.81,2.15,2.15,0,0,1,.35,1.24,3.15,3.15,0,0,1-.1.81,3.23,3.23,0,0,1-.41.84,6.47,6.47,0,0,1-.87,1l-3,2.93-.29-.46h5.07v1Z"/><path class="cls-5" d="M293,765.06a3.13,3.13,0,0,1-1.76-.51,3.41,3.41,0,0,1-1.22-1.46,6.26,6.26,0,0,1,0-4.66,3.41,3.41,0,0,1,1.22-1.46,3.27,3.27,0,0,1,3.51,0,3.37,3.37,0,0,1,1.23,1.46,6.39,6.39,0,0,1,0,4.66,3.37,3.37,0,0,1-1.23,1.46A3.12,3.12,0,0,1,293,765.06Zm0-1.07a1.93,1.93,0,0,0,1.16-.36,2.37,2.37,0,0,0,.78-1.08,5.86,5.86,0,0,0,0-3.58,2.37,2.37,0,0,0-.78-1.08,2,2,0,0,0-2.32,0,2.31,2.31,0,0,0-.79,1.08,5.86,5.86,0,0,0,0,3.58,2.31,2.31,0,0,0,.79,1.08A1.93,1.93,0,0,0,293,764Z"/><path class="cls-5" d="M297.58,765v-.82l3.42-3.3a4.79,4.79,0,0,0,.68-.76,2.63,2.63,0,0,0,.3-.61,2.13,2.13,0,0,0,.07-.55,1.22,1.22,0,0,0-.45-1,2,2,0,0,0-1.33-.38,3.4,3.4,0,0,0-1.22.22,2.34,2.34,0,0,0-.93.7l-.82-.71a3.07,3.07,0,0,1,1.29-1,4.91,4.91,0,0,1,1.79-.33,3.75,3.75,0,0,1,1.52.29,2.19,2.19,0,0,1,1,.81,2.15,2.15,0,0,1,.35,1.24,3.15,3.15,0,0,1-.1.81,2.94,2.94,0,0,1-.41.84,6.92,6.92,0,0,1-.86,1l-3.05,2.93-.29-.46h5.08v1Z"/><path class="cls-5" d="M308.19,765.06a3.53,3.53,0,0,1-1.91-.5,3.08,3.08,0,0,1-1.21-1.42,5.69,5.69,0,0,1-.41-2.27,5.31,5.31,0,0,1,.5-2.41,3.45,3.45,0,0,1,1.41-1.49,4.09,4.09,0,0,1,2.06-.51,5.4,5.4,0,0,1,1.15.12,3.08,3.08,0,0,1,.94.38l-.46.93a2,2,0,0,0-.73-.31,4.94,4.94,0,0,0-.87-.08,2.67,2.67,0,0,0-2,.79,3.34,3.34,0,0,0-.76,2.38c0,.16,0,.36,0,.59a4,4,0,0,0,.12.69l-.41-.41a2.23,2.23,0,0,1,.58-.93,2.37,2.37,0,0,1,.93-.56,3.48,3.48,0,0,1,1.18-.19,3.36,3.36,0,0,1,1.49.31,2.5,2.5,0,0,1,1,.88,2.41,2.41,0,0,1,.37,1.36,2.52,2.52,0,0,1-.39,1.4,2.59,2.59,0,0,1-1.07.92A3.38,3.38,0,0,1,308.19,765.06Zm-.05-1a2.13,2.13,0,0,0,1-.2,1.63,1.63,0,0,0,.65-.57,1.52,1.52,0,0,0,.24-.86,1.46,1.46,0,0,0-.52-1.18,2.1,2.1,0,0,0-1.4-.44,2.31,2.31,0,0,0-1,.22,1.76,1.76,0,0,0-.68.58,1.49,1.49,0,0,0-.24.83,1.41,1.41,0,0,0,.23.8,1.58,1.58,0,0,0,.67.6A2.38,2.38,0,0,0,308.14,764.08Z"/><path class="cls-3" d="M463.27,372.73a20.65,20.65,0,0,0-5.83.79,19.27,19.27,0,0,0-5.64,2.64,19.46,19.46,0,0,0-7,8.7,17.34,17.34,0,0,0-1.13,4.31,16.71,16.71,0,0,0-.18,3.74,18.52,18.52,0,0,0,2.92,9,19,19,0,0,0,12.12,8.52,32.26,32.26,0,0,0,3.66.53,16.38,16.38,0,0,0,4.68-.38,19.34,19.34,0,0,0,7.9-3.42,19,19,0,0,0,4.76-5,17.92,17.92,0,0,0,2.19-4.51,25.63,25.63,0,0,0,.67-3.13,20.45,20.45,0,0,0,.24-2.21,5.83,5.83,0,0,0,0-1.32c-.2-1.37-.34-2.76-.67-4.1a18.06,18.06,0,0,0-3-6.17,18.52,18.52,0,0,0-10.87-7.36A19.25,19.25,0,0,0,463.27,372.73Zm18.08,18.95h.08c-.1.93-.17,1.87-.3,2.8a20,20,0,0,1-1.06,3.85,15.94,15.94,0,0,1-2.71,4.67,19,19,0,0,1-6.89,5.18,18.08,18.08,0,0,1-6.8,1.5,19.51,19.51,0,0,1-4.83-.47A17.59,17.59,0,0,1,452,406a17.85,17.85,0,0,1-5.81-7.46,16.93,16.93,0,0,1-1.32-5.91,15.87,15.87,0,0,1,.22-3.77A18.29,18.29,0,0,1,451.47,378a17.63,17.63,0,0,1,8.44-3.75,20.71,20.71,0,0,1,7.73.26,16.39,16.39,0,0,1,5.13,2.14,18.4,18.4,0,0,1,5.94,6.06A16.6,16.6,0,0,1,481.35,391.68Z"/><path class="cls-3" d="M479.46,395.52c-.25.15-.43.24-.59.36-.56.42-1.09.87-1.67,1.26s-1,.55-1.54.84a.68.68,0,0,0-.27.29,13.42,13.42,0,0,1-1.81,3.73,18.09,18.09,0,0,1-6.06,5.64l-.28.17a.67.67,0,0,0-.27.22c.33-.07.66-.11,1-.2A15.71,15.71,0,0,0,473.4,405a16,16,0,0,0,3.23-3.25,16.44,16.44,0,0,0,2.39-4.37c.16-.47.3-.95.43-1.43A1.66,1.66,0,0,0,479.46,395.52Z"/><path class="cls-3" d="M459,408c-.63-.43-1.29-.81-1.87-1.29a27.73,27.73,0,0,1-2.81-2.47,16.2,16.2,0,0,1-3.57-5.78.84.84,0,0,0-.42-.47,18.38,18.38,0,0,1-3.37-2.19l-.33-.22a3.54,3.54,0,0,0,.06.45,16.17,16.17,0,0,0,4,7.18,17,17,0,0,0,4.77,3.59A11,11,0,0,0,459,408Z"/><path class="cls-3" d="M456.76,393.29a25.09,25.09,0,0,0,5.62.63,1.23,1.23,0,0,0,0-.19l0-4.12c0-.36,0-.34-.37-.34a10.26,10.26,0,0,1-1.35-.12c-1.09-.14-2.18-.3-3.27-.47a2.76,2.76,0,0,1-.54-.16A26.81,26.81,0,0,0,456.76,393.29Z"/><path class="cls-3" d="M469.27,393.24a24,24,0,0,0-.08-4.64,28,28,0,0,1-5.55.71v4.59A26,26,0,0,0,469.27,393.24Z"/><path class="cls-3" d="M469.14,394.48a42.07,42.07,0,0,1-5.51.66v4.47c.67,0,1.34,0,2,0,.84-.07,1.67-.22,2.49-.34a.36.36,0,0,0,.23-.22,24.14,24.14,0,0,0,.78-4.05A4.34,4.34,0,0,0,469.14,394.48Z"/><path class="cls-3" d="M456.79,394.47c.06.47.11.92.19,1.36.19.95.39,1.89.6,2.84.1.49.11.47.6.57a21.13,21.13,0,0,0,3.54.43h.67v-4.51A35.24,35.24,0,0,1,456.79,394.47Z"/><path class="cls-3" d="M469.67,398.93a16,16,0,0,0,4.16-1.49,1.44,1.44,0,0,1,.33-.16c.45-.09.57-.42.65-.8.21-1.06.42-2.13.61-3.2a10.34,10.34,0,0,0,.12-1.13c-.34.15-.6.25-.84.38a20.46,20.46,0,0,1-4.22,1.59c-.06,0-.15.11-.15.17A23.91,23.91,0,0,1,469.67,398.93Z"/><path class="cls-3" d="M451.27,386.34c-.16.71-.33,1.33-.43,2s-.14,1.51-.21,2.27a.52.52,0,0,0,.31.57,16.38,16.38,0,0,0,4.19,1.75l.43.11c0-.59,0-1.16,0-1.71,0-.89.07-1.77.13-2.65a.38.38,0,0,0-.3-.45A15.63,15.63,0,0,1,451.27,386.34Z"/><path class="cls-3" d="M462.38,383.46a15.83,15.83,0,0,1-4.27-.59,20.48,20.48,0,0,0-1.07,4.6,33,33,0,0,0,5.34.65Z"/><path class="cls-3" d="M463.64,388.08a24.75,24.75,0,0,0,5.41-.63,22.94,22.94,0,0,0-1.14-4.51,15.35,15.35,0,0,1-4.27.55Z"/><path class="cls-3" d="M470.32,388.23a19.81,19.81,0,0,1,.16,4.69,11,11,0,0,0,1.22-.37c1.21-.51,2.4-1.06,3.61-1.59a.3.3,0,0,0,.19-.35,19.51,19.51,0,0,0-.67-4.09l-.1-.24A19.11,19.11,0,0,1,470.32,388.23Z"/><path class="cls-3" d="M456.4,399c-.18-.86-.35-1.63-.5-2.4s-.22-1.41-.34-2.12a.4.4,0,0,0-.2-.24c-.94-.32-1.89-.6-2.82-.95-.55-.2-1.06-.48-1.59-.73l-.4-.2c0,.43.05.8.1,1.16a14.5,14.5,0,0,0,.65,3.06,1.06,1.06,0,0,0,.69.78c.79.28,1.52.7,2.3,1S455.66,398.73,456.4,399Z"/><path class="cls-3" d="M460.58,407.36c-.45-.59-.94-1.15-1.36-1.76a17,17,0,0,1-2-4.05c-.12-.34-.21-.69-.35-1a.53.53,0,0,0-.29-.28c-1.29-.43-2.59-.84-3.89-1.26a3.08,3.08,0,0,0-.56-.18,4.75,4.75,0,0,0,.22.76,16,16,0,0,0,2.86,4,16.53,16.53,0,0,0,3.53,2.93c.51.31,1.07.53,1.6.79A1,1,0,0,0,460.58,407.36Z"/><path class="cls-3" d="M465.61,407.21c2.67-.58,8.17-6.17,8.24-8.39-.68.26-1.35.55-2,.77s-1.6.44-2.39.66a.43.43,0,0,0-.28.2,18.06,18.06,0,0,1-2.33,5.09Z"/><path class="cls-3" d="M472.17,381.24l-3.06,1.44c.37,1.4.75,2.86,1.13,4.34a16.19,16.19,0,0,0,3.93-1.79.37.37,0,0,0,0-.3,12.69,12.69,0,0,0-1.36-2.64C472.61,381.93,472.38,381.57,472.17,381.24Z"/><path class="cls-3" d="M456.88,382.62l-3.06-1.28a18.59,18.59,0,0,0-1.73,3.1,5.79,5.79,0,0,0-.25.57.36.36,0,0,0,.06.31,11,11,0,0,0,3.87,1.74Q456.34,384.81,456.88,382.62Z"/><path class="cls-3" d="M462.38,400.86l-4.19-.33c0,1.41,3.07,6.54,4.19,6.84Z"/><path class="cls-3" d="M467.84,400.55l-4.23.37v6.57a3.59,3.59,0,0,0,.46-.35,14.43,14.43,0,0,0,2-2.67,18.63,18.63,0,0,0,1.71-3.68Z"/><path class="cls-3" d="M479.75,389a1.17,1.17,0,0,0-.19.14,17.13,17.13,0,0,1-2.71,2.32.49.49,0,0,0-.16.31c-.13,1.12-.23,2.24-.36,3.36-.05.4-.16.79-.26,1.27l1.32-1c.63-.48,1.25-1,1.88-1.43a1.57,1.57,0,0,0,.66-1,9.33,9.33,0,0,0-.05-3.61C479.85,389.27,479.8,389.16,479.75,389Z"/><path class="cls-3" d="M446.28,389.15c-.06.42-.13.76-.15,1.1a11.83,11.83,0,0,0,.12,3.09,1,1,0,0,0,.44.68,6.2,6.2,0,0,1,.88.73,14,14,0,0,0,2.46,1.78c-.14-.75-.3-1.45-.4-2.16s-.19-1.61-.26-2.42a.57.57,0,0,0-.32-.53,9,9,0,0,1-2.42-1.94C446.54,389.38,446.44,389.3,446.28,389.15Z"/><path class="cls-3" d="M458.51,381.79a21.62,21.62,0,0,0,3.87.51v-6.44a4,4,0,0,0-.38.26,12,12,0,0,0-2.38,3.32C459.23,380.19,458.89,381,458.51,381.79Z"/><path class="cls-3" d="M463.7,375.93c-.11,2.12-.05,4.23-.09,6.35a16.71,16.71,0,0,0,3.85-.43A15.79,15.79,0,0,0,463.7,375.93Z"/><path class="cls-3" d="M449.35,390.33c.09-.6.14-1.1.24-1.58.18-.87.39-1.74.57-2.61a.47.47,0,0,0-.07-.39,10.06,10.06,0,0,1-1.81-1.82l-.13-.09-.32.58a12.08,12.08,0,0,0-1.06,2.91.81.81,0,0,0,.24.81c.35.35.63.76,1,1.1S448.85,389.93,449.35,390.33Z"/><path class="cls-3" d="M476.71,390.12c.43-.37.87-.74,1.28-1.13s.91-.88,1.35-1.34a.34.34,0,0,0,.11-.29,12,12,0,0,0-1.18-3c-.3-.51-.32-.5-.73-.08s-1,.95-1.49,1.41a.37.37,0,0,0-.12.46,19.47,19.47,0,0,1,.69,3.94Z"/><path class="cls-3" d="M468.61,381.53a11.41,11.41,0,0,0,2.72-1.32,15.48,15.48,0,0,0-5.78-4.22A22,22,0,0,1,468.61,381.53Z"/><path class="cls-3" d="M460.54,375.93a15.25,15.25,0,0,0-5.87,4.32,10.13,10.13,0,0,0,2.68,1.24c.45-1,.84-2,1.34-2.94A9.17,9.17,0,0,1,460.54,375.93Z"/><path class="cls-3" d="M473.25,380.69c.71,1.26,1.44,2.51,2.17,3.79l1.78-1.9c-.42-.56-.93-1.23-1.45-1.88-.27-.33-.57-.63-.87-.93s-.3-.22-.55,0S473.59,380.4,473.25,380.69Z"/><path class="cls-3" d="M451.45,379.49l-2.61,3.15c.61.74,1,1.57,1.77,2l2.1-3.95Z"/><path class="cls-3" d="M472.42,379.68l1.08-1.08a15.18,15.18,0,0,0-6.07-3.13A19.92,19.92,0,0,1,472.42,379.68Z"/><path class="cls-3" d="M452.56,378.63c.31.4.61.79.94,1.2a18,18,0,0,1,4.67-4.15A16.81,16.81,0,0,0,452.56,378.63Z"/></g></g></svg>